# ProBuilder 5.0.3
# https://unity3d.com/unity/features/worldbuilding/probuilder
# 09.08.2021 02:12:28

mtllib ./Base_Collider_Walls.mtl
o Base Collider Walls

g Base Collider Walls
v -64.90303 1.720674 18.7894
v -64.89079 3.800279 21.8707
v -65.00034 12.01146 22.55637
v 67.81616 26.57499 36.78119
v 67.81616 -0.2038574 36.78119
v 72.78253 -2.378471 27.58837
v 3.745478 -17.70733 -70.67641
v 3.675891 112.5001 -67.21155
v 21.53782 112.5001 -65.66117
v 22.43228 -10.42833 -69.05443
v 37.10382 112.5001 -59.62556
v 38.71712 -9.741623 -62.74009
v 53.75841 112.5001 -46.21094
v 56.14085 -9.433212 -48.70598
v 64.47902 112.5001 -25.58229
v 67.35653 -9.384186 -27.12469
v 72.633 -7.670395 -6.40829
v 64.92537 112.5001 3.788351
v 67.8235 -2.19017 3.602315
v 69.52257 112.5001 -5.780364
v -41.06984 32.9069 74.81129
v -39.16118 112.5001 71.854
v -34.72747 112.5001 66.44061
v -36.43138 30.77176 69.14789
v -32.23986 33.62458 86.31002
v -30.72098 112.5001 82.84515
v 69.6655 112.5001 26.71561
v 64.91836 112.5001 35.50264
v -68.2088 22.02069 -0.02326959
v -68.06754 0.9963403 1.037978
v -65.71864 1.353751 6.436707
v -65.80849 22.64802 6.193852
v -64.55663 1.633706 12.47391
v -64.50574 21.38306 13.46343
v 57.22651 112.5001 47.04773
v 59.7691 30.62572 48.85944
v 56.24884 112.5001 63.97838
v 58.74628 25.62622 66.57196
v 34.75086 112.5001 61.38129
v 36.25552 25.5011 63.85493
v -51.57545 -4.971947 -50.55727
v -49.20305 112.5001 -47.98051
v -39.613 112.5001 -56.77683
v -41.54252 -6.420219 -59.75982
v -59.70654 -0.1203003 -39.08597
v -56.97522 112.5001 -37.01558
v -68.23602 21.63321 0.5815097
v -65.12819 112.4999 0.9008908
v -69.72651 26.49186 14.67542
v -66.55289 112.5 14.37267
v -65.95595 26.23537 33.56981
v -62.94877 112.5 32.43301
v -61.56388 112.5001 39.64926
v -64.50712 23.28717 41.1193
v -68.47227 11.82329 -8.246315
v -68.4192 2.832275 -6.902808
v 46.09061 8.65634 57.73407
v 47.1261 -15.68688 59.38779
v 54.98813 -14.02039 52.39336
v 53.9724 -1.214635 50.90265
v 38.92156 10.10699 63.37287
v 39.09767 -15.68276 64.22929
v 28.50433 8.163288 68.10534
v 30.13386 -15.67483 69.03005
v 16.95669 -2.779433 73.03716
v 18.89994 -14.02206 74.11192
v 60.00529 26.57499 32.81954
v 60.00529 -0.2038591 32.81954
v 27.64265 112.5001 57.04947
v 28.81904 27.64465 59.32306
v 21.59556 112.5001 66.06421
v 22.49269 29.78821 68.75411
v 5.242695 31.93176 73.30573
v 5.107018 112.5001 70.41491
v -6.934622 34.07532 68.44949
v -6.532766 112.5001 65.77304
v -25.2698 112.5001 -64.19496
v -26.53695 -12.06377 -67.52051
v -19.29929 112.5001 77.30818
v -20.29071 33.84995 80.51734
v 70.89098 112.5001 16.42634
v 74.06461 -2.284321 16.82393

vt 0 1
vt 0.9836112 0.8413734
vt 1 1
vt 0 0
vt 0.1092264 1.003642
vt 3.697066 1.020642
vt 0.75 1
vt 0.5 1
vt 0.749589 1
vt 0.25 1
vt 0.4933775 0.9481903
vt 1.06031 0.7787048
vt 0.4969629 0.8545971
vt 0.5499653 0.7258773
vt 0.9984361 0.0169358
vt 0.6243834 1
vt 0.4991779 1

vn 99.98212 0.4020684 1.847463
vn 99.98005 1.448828 -1.375077
vn 99.98597 0.3454752 1.63927
vn -88.19427 -2.474745 -47.07065
vn -87.98156 0 -47.53152
vn -93.80598 -2.028574 -34.5879
vn 0.8902581 -2.697123 99.95966
vn 0.7401693 -2.689636 99.96108
vn -22.35184 -2.81232 97.4294
vn -22.0588 -2.855555 97.4949
vn -49.9882 -2.861165 86.56207
vn -49.95544 -2.86696 86.5808
vn -77.34182 -2.805177 63.32752
vn -77.33476 -2.807294 63.33604
vn -93.38375 -2.665109 35.67033
vn -93.36489 -2.656239 35.72033
vn -99.50743 -2.541836 -9.581789
vn -99.96877 -2.498192 -0.0690959
vn -99.96789 -2.525929 0.2009639
vn -99.47607 -2.523022 -9.906894
vn 99.9587 -2.338928 1.669574
vn 99.95876 -2.347667 1.653576
vn 99.84975 -2.242921 -4.99954
vn 99.85832 -2.140048 -4.872033
vn 23.05338 -4.701779 -97.19277
vn 22.99006 -4.715721 -97.20709
vn -95.2868 -2.815514 -30.20759
vn -86.92928 -3.433216 -49.31038
vn 97.73036 -0.1145532 -21.18403
vn 97.46959 -0.6055262 -22.34533
vn 95.83555 -0.254601 -28.55667
vn 96.21944 0.1981577 -27.23565
vn 99.79404 -0.06060287 -6.414501
vn 99.80302 -0.01024304 -6.273542
vn -94.86179 -3.59508 -31.4375
vn -94.87758 -3.594747 -31.38985
vn -63.92067 -4.197687 -76.78885
vn -63.75514 -4.128229 -76.93011
vn 32.75884 -2.120128 -94.45827
vn 32.67045 -2.131052 -94.48862
vn 74.59103 -2.957214 66.53896
vn 74.80953 -2.996481 66.29144
vn 57.17876 -2.993411 81.98554
vn 56.92034 -2.952107 82.16666
vn 91.09892 -2.93499 41.13845
vn 91.34804 -3.129458 40.56775
vn 98.53609 -3.269971 16.73162
vn 98.63852 -3.478726 16.07301
vn 99.84048 -3.652248 -4.305882
vn 99.82628 -3.696882 -4.587862
vn 97.93098 -3.678725 -19.89949
vn 98.00426 -3.643631 -19.54198
vn 88.34581 -3.767782 -46.69926
vn 88.25903 -3.714359 -46.86734
vn 99.91492 0.2029326 -4.118975
vn 99.9013 -0.07387379 -4.441181
vn -66.31509 -9.34831 -74.2625
vn -61.38425 -6.747243 -78.65398
vn -69.84768 -10.74241 -70.7524
vn -74.02956 -13.53758 -65.85103
vn -49.25943 -4.462146 -86.91144
vn -47.85765 -4.088101 -87.70936
vn -39.23234 -5.486958 -91.81893
vn -41.47746 -9.525159 -90.49249
vn -38.58047 -10.95822 -91.60494
vn -42.6228 -15.8807 -89.05672
vn 45.23415 0 -89.18448
vn -21.53811 -2.900586 -97.60992
vn -21.75653 -2.938179 -97.56035
vn -58.17865 -3.279981 -81.268
vn -58.36546 -3.271655 -81.13427
vn 5.697789 -3.547465 -99.7745
vn 5.933876 -3.592904 -99.75912
vn -17.7974 -3.238314 -98.35022
vn -17.67245 -3.26664 -98.37181
vn 28.41027 -2.881841 95.83607
vn 28.06595 -2.817764 95.93937
vn -55.86777 -2.679713 -82.89519
vn -55.8512 -2.676646 -82.90645
vn -98.66795 -2.672949 16.04656
vn -98.66956 -2.671954 16.03683

usemtl Collider_Debug
f 3/3/3 2/2/2 1/1/1
f 6/6/6 5/5/5 4/4/4
f 64/3/64 66/1/66 65/14/65
f 63/1/63 64/3/64 65/14/65
f 9/3/9 8/1/8 7/3/7
f 7/3/7 10/1/10 9/3/9
f 11/3/11 9/1/9 10/3/10
f 10/3/10 12/1/12 11/3/11
f 13/3/13 11/1/11 12/3/12
f 12/3/12 14/1/14 13/3/13
f 15/3/15 13/1/13 14/3/14
f 14/3/14 16/1/16 15/3/15
f 17/7/17 19/9/19 18/8/18
f 18/8/18 20/10/20 17/7/17
f 23/3/23 22/1/22 21/3/21
f 21/3/21 24/1/24 23/3/23
f 25/3/25 21/1/21 22/3/22
f 22/3/22 26/1/26 25/3/25
f 28/3/28 27/1/27 6/11/6
f 6/11/6 4/1/4 28/3/28
f 31/3/31 30/1/30 29/3/29
f 29/3/29 32/1/32 31/3/31
f 33/3/33 31/1/31 32/3/32
f 32/3/32 34/1/34 33/3/33
f 35/3/35 28/1/28 4/3/4
f 4/3/4 36/1/36 35/3/35
f 37/3/37 35/1/35 36/3/36
f 36/3/36 38/1/38 37/3/37
f 39/3/39 37/1/37 38/3/38
f 38/3/38 40/1/40 39/3/39
f 43/3/43 42/1/42 41/3/41
f 41/3/41 44/1/44 43/3/43
f 42/3/42 46/1/46 45/3/45
f 45/3/45 41/1/41 42/3/42
f 46/3/46 48/1/48 47/3/47
f 47/3/47 45/1/45 46/3/46
f 48/3/48 50/1/50 49/3/49
f 49/3/49 47/1/47 48/3/48
f 50/3/50 52/1/52 51/3/51
f 51/3/51 49/1/49 50/3/50
f 53/3/53 23/1/23 24/3/24
f 24/3/24 54/1/54 53/3/53
f 52/3/52 53/1/53 54/3/54
f 54/3/54 51/1/51 52/3/52
f 55/3/55 29/1/29 30/3/30
f 30/3/30 56/12/56 55/3/55
f 1/3/1 33/1/33 34/3/34
f 34/3/34 3/1/3 1/3/1
f 59/3/59 58/1/58 57/3/57
f 57/3/57 60/13/60 59/3/59
f 58/3/58 62/1/62 61/3/61
f 61/3/61 57/1/57 58/3/58
f 62/3/62 64/1/64 63/3/63
f 63/3/63 61/1/61 62/3/62
f 68/3/67 67/1/67 4/4/67
f 4/4/67 5/15/67 68/3/67
f 69/10/68 39/1/39 40/3/40
f 40/3/40 70/7/69 69/10/68
f 71/8/70 69/10/68 70/7/69
f 70/7/69 72/8/71 71/8/70
f 71/8/70 72/8/71 73/10/72
f 73/10/72 74/7/73 71/8/70
f 74/7/73 73/10/72 75/1/74
f 75/1/74 76/3/75 74/7/73
f 77/8/76 43/1/43 44/3/44
f 44/3/44 78/8/77 77/8/76
f 8/3/8 77/8/76 78/8/77
f 78/8/77 7/1/7 8/3/8
f 76/1/75 75/3/74 80/8/79
f 80/8/79 79/8/78 76/1/75
f 79/8/78 80/8/79 25/1/25
f 25/1/25 26/3/26 79/8/78
f 17/7/17 20/10/20 15/1/15
f 15/1/15 16/3/16 17/7/17
f 81/7/80 18/8/18 19/9/19
f 19/9/19 82/16/81 81/7/80
f 27/3/27 81/7/80 82/16/81
f 82/16/81 6/17/6 27/3/27

